<svg xmlns="http://www.w3.org/2000/svg" viewBox="0 0 1600 1000"><defs><linearGradient id="s" x2="1" y2="1"><stop stop-color="#d9c9ae"/><stop offset=".55" stop-color="#e8dfcf"/><stop offset="1" stop-color="#8f8270"/></linearGradient><linearGradient id="m" y2="1"><stop stop-color="#fff" stop-opacity=".8"/><stop offset="1" stop-color="#fff" stop-opacity="0"/></linearGradient></defs><rect width="1600" height="1000" fill="url(#s)"/><circle cx="1260" cy="210" r="145" fill="#d2aa70" opacity=".85"/><path d="M0 560Q250 480 480 570T950 550T1600 520V1000H0Z" fill="#8b8172"/><path d="M0 650Q250 500 530 650T1050 610T1600 570V1000H0Z" fill="#625c52"/><path d="M0 750Q250 610 520 750T1050 700T1600 660V1000H0Z" fill="#3d3d37"/><path d="M0 610Q350 560 700 635T1600 590V850Q1100 720 700 790T0 820Z" fill="url(#m)"/><path d="M1200 705l38-82 18 54 34-70 46 98 35-30 52 68v70h-230z" fill="#2b2c29"/><circle cx="1264" cy="635" r="13" fill="#171715"/><path d="M1264 650v73m-24-44 24 21 24-21m-17 42-20 53m20-53 24 53" stroke="#171715" stroke-width="8" stroke-linecap="round"/></svg>